<svg width="788" height="728" viewBox="0 0 788 728" fill="none" xmlns="http://www.w3.org/2000/svg">
<rect width="62.9216" height="293.635" rx="31.4608" transform="matrix(-0.444611 -0.895724 -0.895729 0.444601 787.992 452.36)" fill="#FB955F"/>
<rect width="62.9216" height="293.635" rx="31.4608" transform="matrix(0.444611 -0.895724 0.895729 0.444601 0 459.36)" fill="#FB955F"/>
<path d="M538.506 728.816H538.503V779.164H413.648V728.816H371.692V779.164H246.838V472.118H538.506V728.816Z" fill="#C74547"/>
<rect x="185.695" y="627.932" width="413.198" height="165.675" rx="82.8377" fill="#C74547"/>
<ellipse cx="392.294" cy="762.05" rx="163.208" ry="57.1975" fill="#C74547"/>
<path d="M549.903 32.5775C561.064 36.9725 569.662 47.5536 573.612 62.9307C577.558 78.2913 576.527 97.5696 568.926 116.873C561.325 136.176 548.935 150.982 535.576 159.528C522.202 168.084 508.698 169.962 497.537 165.567C486.376 161.172 477.778 150.591 473.827 135.214C469.881 119.853 470.913 100.575 478.514 81.2717C486.115 61.9685 498.504 47.1624 511.864 38.6161C525.237 30.0608 538.741 28.1827 549.903 32.5775Z" fill="#FF742B" stroke="#FB955F" stroke-width="22.7886"/>
<path d="M224.377 33.0472C213.215 37.4422 204.617 48.0233 200.667 63.4004C196.721 78.7611 197.752 98.0394 205.353 117.343C212.954 136.646 225.344 151.452 238.703 159.998C252.077 168.553 265.581 170.432 276.742 166.037C287.904 161.642 296.502 151.06 300.452 135.683C304.398 120.323 303.366 101.045 295.765 81.7414C288.164 62.4382 275.775 47.6322 262.416 39.0858C249.042 30.5305 235.538 28.6525 224.377 33.0472Z" fill="#FF742B" stroke="#FB955F" stroke-width="22.7886"/>
<path d="M386.772 63.1152C490.609 63.1154 577.776 159.046 601.897 288.568C633.367 306.954 654.51 341.091 654.51 380.167C654.51 427.924 622.93 468.305 579.515 481.568C546.77 501.704 472.35 515.765 385.786 515.765C297.331 515.765 221.558 501.083 189.973 480.24C148.658 465.763 119.029 426.425 119.029 380.167C119.029 341.088 140.175 306.949 171.647 288.564C195.77 159.044 282.937 63.1153 386.772 63.1152Z" fill="#FB955F"/>
<path d="M418.792 317.241C432.488 296.475 345.627 294.493 355.693 317.241C360.49 328.081 372.66 350.292 386.94 350.292C400.161 350.292 412.28 327.116 418.792 317.241Z" fill="#2E2E2E"/>
<path d="M266.227 222.839L334.981 255.785C341.269 258.798 340.423 268.005 333.693 269.822L242.646 294.408" stroke="#54002D" stroke-width="18.7936" stroke-linecap="round"/>
<path d="M503.712 222.839L434.958 255.785C428.671 258.798 429.516 268.005 436.247 269.822L527.293 294.408" stroke="#54002D" stroke-width="18.7936" stroke-linecap="round"/>
<path d="M442.711 380.358C442.711 410.767 417.951 453.195 387.408 453.195C356.865 453.195 332.105 410.767 332.105 380.358C332.105 349.949 356.865 372.215 387.408 372.215C417.951 372.215 442.711 349.949 442.711 380.358Z" fill="#54002D"/>
<path d="M388.588 411.752C404.073 411.752 418.491 414.916 430.566 420.36C420.461 438.579 404.532 453.192 386.608 453.192C369.174 453.192 353.626 439.365 343.49 421.843C356.167 415.494 371.746 411.752 388.588 411.752Z" fill="#AE1165"/>
</svg>
