<svg width="250" height="114" viewBox="0 0 250 114" fill="none" xmlns="http://www.w3.org/2000/svg">
<path d="M20.022 83.8824C16.3105 83.783 13.3656 83.0331 11.1871 81.6327C8.76075 80.1632 7.58433 78.0562 7.65783 75.3116L8.24539 53.3703L9.69567 53.4092C11.2551 53.4509 12.0486 52.9572 12.0762 51.928C12.0795 51.8032 12.0533 51.6152 11.9976 51.3641L4.23165 51.1561C2.49202 48.519 1.67316 45.2979 1.77505 41.4929C1.87695 37.6879 2.86953 34.4217 4.75281 31.6944L8.82293 31.8034C9.7101 26.6461 11.8434 22.7394 15.2229 20.0833C18.6024 17.4273 23.0368 16.1727 28.526 16.3197C32.4558 16.4249 35.8559 17.0778 38.7264 18.2783C41.5969 19.4787 43.6834 20.8143 44.9861 22.2849C45.2705 23.3224 45.393 24.5742 45.3537 26.04L45.3299 26.9289C45.2439 30.1413 44.7005 32.9514 43.6997 35.359C41.5251 36.1435 38.5041 36.484 34.6367 36.3804C33.0461 36.3378 31.3025 36.1819 29.4058 35.9126C27.5403 35.6442 26.1583 35.3887 25.2597 35.1461C25.0355 35.3586 24.918 35.6676 24.9071 36.073C24.8929 36.6032 25.6281 37.1223 27.1126 37.6302C28.598 38.107 31.0093 38.39 34.3465 38.4794C37.7148 38.5696 40.48 38.4564 42.6421 38.1397C42.847 38.6446 43.0243 39.6013 43.1738 41.0098C43.3554 42.3879 43.4282 43.7475 43.3923 45.0887C43.3155 47.958 42.7218 50.3142 41.6113 52.1571L32.9564 51.9253L32.1784 80.9776C28.7212 83.0386 24.6691 84.0068 20.022 83.8824Z" fill="white"/>
<path d="M74.1126 95.3552C65.7611 97.5785 58.5554 97.0108 52.4953 93.6521C46.3066 90.2952 42.1327 84.5617 39.9735 76.4514C37.8063 68.311 38.6363 61.1807 42.4633 55.0605C45.9868 49.3764 51.3514 45.5751 58.5572 43.6567C65.7629 41.7384 72.0664 42.1911 77.4674 45.0151C82.8906 47.8008 86.3728 52.088 87.9139 57.8768C89.2865 63.0324 88.528 67.3993 85.6385 70.9775C82.9802 74.3327 78.7869 76.7728 73.0584 78.2979C68.7772 79.4377 64.9224 79.5115 61.4942 78.5192C61.3012 78.7644 61.2688 79.1281 61.3973 79.6105C61.6381 80.515 63.0497 81.0271 65.6322 81.1467C68.2308 81.3266 71.0375 81.0153 74.0525 80.2126C77.0976 79.4019 79.756 78.2906 82.0276 76.8787C84.3213 75.4286 86.0815 73.9752 87.308 72.5186C88.2002 72.9591 89.086 73.9825 89.9657 75.5886C90.8674 77.1566 91.5069 78.6491 91.8841 80.0662C92.2534 81.453 92.4468 82.7253 92.4644 83.8829C90.6425 86.4989 88.6078 88.5581 86.3602 90.0604C83.2 92.2578 79.1174 94.0227 74.1126 95.3552ZM65.3736 64.8947C66.8811 64.4933 67.4823 63.7198 67.1773 62.5741C66.8883 61.4887 65.9449 61.1588 64.347 61.5842C62.749 62.0096 62.0582 63.1137 62.2745 64.8964C63.2552 65.1842 64.2882 65.1836 65.3736 64.8947Z" fill="white"/>
<path d="M116.62 81.8272C108.014 81.0257 101.45 78.0014 96.9247 72.7543C92.2784 67.4647 90.3445 60.6415 91.1229 52.2849C91.9042 43.8973 95.1484 37.4938 100.856 33.0745C106.127 28.9593 112.475 27.2474 119.9 27.939C127.325 28.6306 133.083 31.235 137.174 35.7523C141.3 40.2415 143.084 45.4683 142.529 51.4329C142.034 56.7451 139.812 60.5803 135.864 62.9387C132.209 65.1677 127.431 66.0074 121.529 65.4576C117.117 65.0467 113.475 63.783 110.601 61.6666C110.335 61.8299 110.179 62.16 110.133 62.657C110.046 63.589 111.193 64.5576 113.575 65.5628C115.951 66.6302 118.693 67.3086 121.799 67.5979C124.937 67.8902 127.815 67.7666 130.435 67.2273C133.089 66.6597 135.243 65.9047 136.897 64.962C137.582 65.6839 138.06 66.9504 138.33 68.7616C138.634 70.5447 138.718 72.1663 138.582 73.6263C138.448 75.0554 138.19 76.316 137.806 77.4083C135.192 79.2329 132.571 80.4615 129.943 81.0941C126.217 82.0632 121.776 82.3075 116.62 81.8272ZM118.952 50.2239C120.506 50.3686 121.337 49.8507 121.447 48.6702C121.551 47.5518 120.78 46.916 119.134 46.7626C117.487 46.6092 116.457 47.4063 116.044 49.1539C116.864 49.7631 117.834 50.1197 118.952 50.2239Z" fill="white"/>
<path d="M171.834 31.2565L169.093 64.0424C168.705 68.675 169.573 71.7845 171.694 73.3707C171.712 73.5288 171.703 73.8255 171.667 74.2607L171.597 75.1002C171.225 79.5463 169.808 82.8248 167.346 84.9358C164.915 87.0494 161.632 87.9333 157.497 87.5875C153.362 87.2418 150.178 85.8171 147.945 83.3136C145.282 80.3358 144.182 76.0798 144.645 70.5455L148.696 22.0896C152.127 20.3727 155.942 19.6898 160.139 20.0407C164.367 20.3943 167.432 21.5585 169.333 23.5333C171.268 25.4797 172.102 28.0541 171.834 31.2565Z" fill="white"/>
<path d="M198.926 58.2772L197.34 66.3122C197.512 66.5687 197.842 66.7453 198.332 66.842C198.822 66.9387 199.207 66.8398 199.488 66.5454C199.769 66.251 199.991 65.6905 200.154 64.8641L201.45 58.2984C202.03 55.3599 202.291 53.392 202.233 52.3948C202.182 51.367 201.819 50.7866 201.146 50.6537C200.717 50.5691 200.32 50.6496 199.953 50.8953C199.631 53.98 199.288 56.4407 198.926 58.2772ZM177.739 75.2278C173.674 69.4007 172.457 62.3549 174.088 54.0904C175.725 45.7952 179.372 39.7254 185.028 35.8807C190.721 32.0115 197.409 30.8351 205.092 32.3515C212.775 33.868 218.496 37.5891 222.256 43.5148C225.985 49.4345 227.058 56.4042 225.475 64.4239C223.898 72.4129 220.364 78.3142 214.873 82.1279C209.413 85.9476 202.78 87.0871 194.974 85.5465C187.169 84.0059 181.424 80.5663 177.739 75.2278Z" fill="white"/>
<path d="M237.782 25.9201C239.474 26.0728 241.777 29.255 241.497 30.7972C240.87 34.2459 232.292 40.1927 229.491 39.941C227.156 39.7312 225.497 36.61 225.777 35.0639C226.401 31.619 234.34 25.6093 237.782 25.9201Z" fill="#FFEF91"/>
<path d="M248.121 47.0166C249.51 47.9949 249.913 51.9021 248.899 53.0976C246.632 55.7711 236.23 56.6319 233.931 55.0137C232.013 53.6643 232.136 50.1316 233.152 48.9327C235.415 46.2614 245.295 45.0262 248.121 47.0166Z" fill="#FFEF91"/>
<path d="M223.614 14.8412C223.04 13.2423 219.38 11.8153 217.958 12.4748C214.779 13.9498 211.184 23.7495 212.133 26.3963C212.925 28.6036 216.363 29.4233 217.789 28.7627C220.965 27.2908 224.782 18.0943 223.614 14.8412Z" fill="#FFEF91"/>
<path d="M198.163 93.0135C179.55 114.29 139.89 112.594 119.678 88.8701" stroke="#FFEF91" stroke-width="10.6137"/>
<circle cx="28.6126" cy="6.93971" r="6.93971" fill="#FFA02E"/>
</svg>
