<svg width="934" height="238" viewBox="0 0 934 238" fill="none" xmlns="http://www.w3.org/2000/svg">
<ellipse cx="88.4865" cy="104.999" rx="88.4857" ry="71.1143" fill="#B5B5B5"/>
<ellipse cx="190.543" cy="86.5421" rx="88.4857" ry="71.1143" fill="#B5B5B5"/>
<ellipse cx="318.658" cy="101.741" rx="88.4857" ry="71.1143" fill="#B5B5B5"/>
<ellipse cx="443.516" cy="86.5421" rx="88.4857" ry="71.1143" fill="#B5B5B5"/>
<ellipse cx="555.344" cy="88.7139" rx="88.4857" ry="71.1143" fill="#B5B5B5"/>
<ellipse cx="660.658" cy="81.1143" rx="88.4857" ry="71.1143" fill="#B5B5B5"/>
<ellipse cx="775.744" cy="96.3135" rx="88.4857" ry="71.1143" fill="#B5B5B5"/>
<ellipse cx="845.229" cy="119.114" rx="88.4857" ry="71.1143" fill="#B5B5B5"/>
<ellipse cx="782.258" cy="151.685" rx="88.4857" ry="71.1143" fill="#B5B5B5"/>
<ellipse cx="668.258" cy="147.343" rx="88.4857" ry="71.1143" fill="#B5B5B5"/>
<ellipse cx="565.115" cy="166.886" rx="88.4857" ry="71.1143" fill="#B5B5B5"/>
<ellipse cx="456.543" cy="156.028" rx="88.4857" ry="71.1143" fill="#B5B5B5"/>
<ellipse cx="341.457" cy="160.37" rx="88.4857" ry="71.1143" fill="#B5B5B5"/>
<ellipse cx="216.602" cy="147.343" rx="88.4857" ry="71.1143" fill="#B5B5B5"/>
<ellipse cx="108.029" cy="147.343" rx="88.4857" ry="71.1143" fill="#B5B5B5"/>
<ellipse cx="88.629" cy="94.9991" rx="88.4857" ry="71.1143" fill="white"/>
<ellipse cx="190.688" cy="76.5421" rx="88.4857" ry="71.1143" fill="white"/>
<ellipse cx="318.801" cy="91.7432" rx="88.4857" ry="71.1143" fill="white"/>
<ellipse cx="443.658" cy="76.5421" rx="88.4857" ry="71.1143" fill="white"/>
<ellipse cx="555.486" cy="78.7139" rx="88.4857" ry="71.1143" fill="white"/>
<ellipse cx="660.801" cy="71.1143" rx="88.4857" ry="71.1143" fill="white"/>
<ellipse cx="775.887" cy="86.3135" rx="88.4857" ry="71.1143" fill="white"/>
<ellipse cx="845.373" cy="109.114" rx="88.4857" ry="71.1143" fill="white"/>
<ellipse cx="782.401" cy="141.685" rx="88.4857" ry="71.1143" fill="white"/>
<ellipse cx="668.401" cy="137.343" rx="88.4857" ry="71.1143" fill="white"/>
<ellipse cx="565.258" cy="156.886" rx="88.4857" ry="71.1143" fill="white"/>
<ellipse cx="456.688" cy="146.028" rx="88.4857" ry="71.1143" fill="white"/>
<ellipse cx="341.602" cy="150.37" rx="88.4857" ry="71.1143" fill="white"/>
<ellipse cx="216.744" cy="137.343" rx="88.4857" ry="71.1143" fill="white"/>
<ellipse cx="108.172" cy="137.343" rx="88.4857" ry="71.1143" fill="white"/>
</svg>
