<svg width="233" height="131" viewBox="0 0 233 131" fill="none" xmlns="http://www.w3.org/2000/svg">
<ellipse cx="116.322" cy="65.1402" rx="116.322" ry="65.1402" fill="#8C4E2C"/>
<path d="M116.407 0C180.65 0.000145469 232.729 29.1648 232.729 65.1406C232.729 79.7781 224.106 93.2864 209.552 104.163C193.742 109.473 175.569 112.886 155.952 113.788C87.6569 116.929 27.7453 88.472 22.1359 50.2266C20.7377 40.6926 22.8463 31.4505 27.8576 22.8984C49.1933 8.88644 80.9473 0 116.407 0Z" fill="#FF8E52"/>
<mask id="mask0_171_2334" style="mask-type:alpha" maskUnits="userSpaceOnUse" x="0" y="0" width="233" height="131">
<ellipse cx="116.322" cy="65.1402" rx="116.322" ry="65.1402" fill="#FF8E52"/>
</mask>
<g mask="url(#mask0_171_2334)">
<path d="M83.782 -4.94879C104.863 3.2536 119.624 14.4494 126.558 25.8101C133.514 37.2074 132.437 48.417 122.951 57.0704C113.464 65.7237 96.6696 70.8166 76.3567 71.6037C56.1088 72.3882 32.9677 68.8359 11.8871 60.6335C-9.19353 52.431 -23.9555 41.2354 -30.889 29.8746C-37.8448 18.4773 -36.7686 7.26836 -27.2825 -1.38504C-17.7961 -10.0385 -1.00067 -15.1319 19.3124 -15.919C39.5603 -16.7035 62.7014 -13.1512 83.782 -4.94879Z" stroke="black" stroke-width="6"/>
<path d="M98.2543 -42.4607C161.786 -17.7406 178.763 32.5407 138.215 69.5286C97.6672 106.517 13.5629 117.468 -49.969 92.748C-113.501 68.0278 -130.479 17.7456 -89.9303 -19.2424C-49.3819 -56.2302 34.7225 -67.1808 98.2543 -42.4607Z" stroke="black" stroke-width="6"/>
<path d="M140.129 49.9396C203.661 74.6598 220.638 124.941 180.09 161.929C139.542 198.917 55.4379 209.868 -8.09403 185.148C-71.626 160.428 -88.6036 110.146 -48.0553 73.158C-7.50691 36.1702 76.5975 25.2195 140.129 49.9396Z" stroke="black" stroke-width="6"/>
<path d="M279.005 79.2298C296.192 90.0086 306.155 102.823 308.495 114.762C310.834 126.699 305.557 137.637 292.563 144.991C279.568 152.345 260.962 154.923 241.073 152.918C221.179 150.913 200.21 144.328 183.023 133.549C165.837 122.77 155.873 109.955 153.533 98.0161C151.194 86.0796 156.47 75.1419 169.465 67.7879C182.459 60.4339 201.066 57.8557 220.955 59.8601C240.849 61.865 261.818 68.4509 279.005 79.2298Z" stroke="black" stroke-width="6"/>
</g>
</svg>
