<svg width="789" height="708" viewBox="0 0 789 708" fill="none" xmlns="http://www.w3.org/2000/svg">
<ellipse cx="445.622" cy="479.767" rx="105.842" ry="195.591" transform="rotate(34.9659 445.622 479.767)" fill="#CA5416"/>
<rect x="177.236" y="435.273" width="59.8546" height="279.322" rx="29.9273" transform="rotate(39.3848 177.236 435.273)" fill="#FB955F"/>
<rect width="59.8546" height="279.322" rx="29.9273" transform="matrix(0.477009 0.878899 0.878899 -0.477009 332.666 549.457)" fill="#FB955F"/>
<path d="M423.799 462.479L423.798 706.663V754.556H305.028V706.663H265.115V754.556H146.345V462.479H423.799Z" fill="#C74547"/>
<rect x="88.1834" y="610.696" width="393.059" height="157.599" rx="78.7994" fill="#C74547"/>
<ellipse cx="284.71" cy="738.276" rx="155.254" ry="54.4091" fill="#C74547"/>
<path d="M440.43 29.6328C451.591 34.0276 460.021 44.546 463.862 59.4997C467.7 74.4401 466.68 93.0935 459.349 111.71C452.019 130.326 440.047 144.667 427.053 152.98C414.047 161.3 400.709 163.248 389.548 158.853C378.387 154.458 369.958 143.939 366.117 128.985C362.279 114.045 363.299 95.3921 370.63 76.7756C377.96 58.1591 389.932 43.8177 402.926 35.5052C415.932 27.1854 429.269 25.238 440.43 29.6328Z" fill="#FF742B" stroke="#FB955F" stroke-width="18.7618"/>
<path d="M129.696 30.0791C118.535 34.4739 110.106 44.9923 106.264 59.946C102.426 74.8864 103.447 93.5398 110.778 112.156C118.108 130.773 130.079 145.113 143.073 153.426C156.079 161.746 169.417 163.694 180.578 159.299C191.739 154.904 200.168 144.385 204.01 129.431C207.848 114.491 206.827 95.8384 199.497 77.2219C192.166 58.6053 180.195 44.2639 167.201 35.9515C154.195 27.6317 140.857 25.6842 129.696 30.0791Z" fill="#FF742B" stroke="#FB955F" stroke-width="18.7618"/>
<path d="M284.709 60.0371C383.483 60.0376 466.401 151.29 489.347 274.496C519.286 291.985 539.401 324.46 539.401 361.634C539.401 407.068 509.354 445.482 468.047 458.095C436.893 477.245 366.107 490.619 283.77 490.619C199.627 490.619 127.547 476.653 97.5008 456.827C58.2018 443.055 30.0195 405.636 30.0193 361.634C30.0193 324.462 50.1319 291.987 80.0682 274.498C103.014 151.291 185.933 60.0371 284.709 60.0371Z" fill="#FB955F"/>
<path d="M312.581 302.44C325.609 282.686 242.982 280.8 252.557 302.44C257.12 312.751 268.697 333.879 282.282 333.879C294.858 333.879 306.386 311.833 312.581 302.44Z" fill="#2E2E2E"/>
<ellipse cx="648.977" cy="482.193" rx="139.919" ry="78.3544" fill="#8C4E2C"/>
<path d="M649.082 403.839C726.357 403.839 789.001 438.92 789.001 482.193C789.001 499.799 778.631 516.047 761.127 529.13C742.109 535.519 720.246 539.626 696.647 540.711C614.497 544.489 542.431 510.258 535.684 464.254C534.003 452.787 536.539 441.672 542.565 431.386C568.229 414.53 606.426 403.839 649.082 403.839Z" fill="#FF8E52"/>
<mask id="mask0_761_30720" style="mask-type:alpha" maskUnits="userSpaceOnUse" x="509" y="403" width="280" height="158">
<ellipse cx="648.977" cy="482.193" rx="139.919" ry="78.3544" fill="#FF8E52"/>
</mask>
<g mask="url(#mask0_761_30720)">
<path d="M609.837 397.887C635.194 407.753 652.949 421.22 661.29 434.886C669.656 448.595 668.362 462.078 656.952 472.486C645.541 482.895 625.339 489.022 600.905 489.968C576.55 490.912 548.714 486.639 523.358 476.773C498 466.907 480.244 453.439 471.904 439.774C463.537 426.065 464.831 412.582 476.242 402.173C487.653 391.764 507.855 385.638 532.288 384.692C556.643 383.748 584.48 388.02 609.837 397.887Z" stroke="black" stroke-width="7.21715"/>
<path d="M627.246 352.765C703.666 382.5 724.088 442.982 675.315 487.473C626.541 531.965 525.374 545.137 448.954 515.403C372.535 485.668 352.113 425.185 400.887 380.694C449.661 336.203 550.826 323.031 627.246 352.765Z" stroke="black" stroke-width="7.21715"/>
<path d="M677.613 463.909C754.033 493.644 774.456 554.126 725.682 598.617C676.908 643.108 575.741 656.281 499.321 626.546C422.902 596.811 402.481 536.329 451.254 491.838C500.028 447.347 601.194 434.174 677.613 463.909Z" stroke="black" stroke-width="7.21715"/>
<path d="M844.66 499.142C865.333 512.108 877.318 527.522 880.132 541.884C882.946 556.242 876.599 569.398 860.968 578.244C845.338 587.09 822.958 590.191 799.034 587.78C775.104 585.368 749.88 577.446 729.207 564.481C708.534 551.515 696.549 536.101 693.735 521.739C690.922 507.382 697.268 494.225 712.898 485.379C728.529 476.534 750.91 473.433 774.833 475.843C798.763 478.255 823.987 486.177 844.66 499.142Z" stroke="black" stroke-width="7.21715"/>
</g>
<path d="M228.307 202.691C217.092 225.363 189.857 241.364 158.037 241.364C147.045 241.364 136.6 239.453 127.174 236.019C125.971 240.877 125.331 245.957 125.331 251.187C125.331 285.926 153.496 314.088 188.24 314.088C222.984 314.088 251.148 285.926 251.148 251.187C251.148 231.67 242.259 214.229 228.307 202.691Z" fill="#FCFCFC"/>
<path d="M222.852 211.646C209.675 229.199 186.097 241.056 159.062 241.404C151.779 241.498 144.725 240.75 138.04 239.271C137.276 242.907 136.897 246.682 136.947 250.552C137.313 278.973 160.652 301.717 189.076 301.35C217.5 300.984 240.246 277.647 239.879 249.226C239.687 234.285 233.143 220.916 222.852 211.646Z" fill="#54002D"/>
<ellipse cx="40.3901" cy="26.5353" rx="40.3901" ry="26.5353" transform="matrix(-0.9291 -0.369827 -0.369707 0.929148 227.867 263.458)" fill="#83004F"/>
<ellipse cx="168.008" cy="269.569" rx="10.836" ry="10.8347" fill="#FCFCFC"/>
<path d="M341.571 202.691C352.786 225.363 380.023 241.364 411.844 241.364C422.836 241.364 433.282 239.453 442.709 236.019C443.912 240.876 444.551 245.956 444.551 251.186C444.55 285.924 416.385 314.085 381.64 314.085C346.896 314.085 318.73 285.924 318.73 251.186C318.73 231.669 327.619 214.229 341.571 202.691Z" fill="#FCFCFC"/>
<path d="M347.024 211.647C360.201 229.2 383.78 241.058 410.817 241.406C418.1 241.5 425.153 240.75 431.839 239.272C432.602 242.908 432.983 246.683 432.933 250.552C432.567 278.973 409.226 301.715 380.801 301.348C352.376 300.982 329.631 277.646 329.997 249.225C330.19 234.285 336.733 220.917 347.024 211.647Z" fill="#54002D"/>
<ellipse cx="40.3909" cy="26.5349" rx="40.3909" ry="26.5349" transform="matrix(0.929108 -0.369809 0.369726 0.929141 342.01 263.456)" fill="#83004F"/>
<ellipse cx="10.8362" cy="10.8344" rx="10.8362" ry="10.8344" transform="matrix(-1 0 0 1 412.705 258.732)" fill="#FCFCFC"/>
<path d="M250.664 393.827C251.331 385.818 259.274 369.799 285.705 369.799" stroke="#54002D" stroke-width="10.0118" stroke-linecap="round"/>
<path d="M318.744 393.827C318.076 385.818 310.134 369.799 283.703 369.799" stroke="#54002D" stroke-width="10.0118" stroke-linecap="round"/>
</svg>
