<svg width="417" height="423" viewBox="0 0 417 423" fill="none" xmlns="http://www.w3.org/2000/svg">
<g filter="url(#filter0_dd_358_2613)">
<path d="M47.014 188.76C56.7968 143.76 49.1786 137.307 88.1016 98.759C127.025 60.2114 173.478 141.31 123.32 149.629C73.1614 157.949 37.2312 233.761 47.014 188.76Z" fill="#B8EDFF"/>
<path d="M252.452 51.8015C211.8 44.6216 170.341 34.3981 158.538 73.3239C147.976 108.154 205.495 85.0627 211.364 79.1933C217.234 73.3239 293.104 58.9814 252.452 51.8015Z" fill="#B8EDFF"/>
<path d="M309.192 128.107C299.637 96.459 272.137 55.3241 301.366 79.1933C330.593 103.06 340.476 121.194 358.101 153.533L358.106 153.542C375.734 185.887 320.905 166.903 309.192 128.107Z" fill="#B8EDFF"/>
<path d="M348.323 259.196C353.055 223.979 360.848 255.997 363.976 216.152C367.103 176.307 363.393 204.928 348.323 233.761C331.928 265.131 343.592 294.414 348.323 259.196Z" fill="#B8EDFF"/>
<path d="M201.582 366.807C235.566 365.278 254.218 361.001 287.67 345.285C321.122 329.568 291.929 326.546 256.365 339.415C222.688 351.602 167.598 368.335 201.582 366.807Z" fill="#B8EDFF"/>
<path d="M129.189 345.285C102.621 330.219 89.2372 319.659 70.4926 292.458C51.748 265.256 152.668 343.329 176.147 339.415C199.625 335.502 155.757 360.35 129.189 345.285Z" fill="#B8EDFF"/>
<path d="M60.7099 272.892C52.7872 255.692 46.0132 243.694 45.0574 218.109C44.1016 192.523 55.3237 209.198 60.7075 239.631C65.8764 268.849 68.6325 290.092 60.7099 272.892Z" fill="#B8EDFF"/>
</g>
<path d="M47.0819 189.693C56.8647 144.692 45.276 164.699 84.199 126.151C123.122 87.6035 173.488 139.354 123.33 147.673C73.1719 155.993 37.2991 234.693 47.0819 189.693Z" fill="#DCF5FF"/>
<path d="M252.52 52.7339C211.868 45.554 170.409 35.3304 158.605 74.2563C148.044 109.086 189.853 65.4976 195.722 59.6282C201.592 53.7589 293.172 59.9138 252.52 52.7339Z" fill="#DCF5FF"/>
<path d="M309.26 129.04C299.705 97.3914 311.278 102.282 340.507 126.151C369.737 150.02 340.546 122.13 358.174 154.475C375.802 186.819 320.973 167.835 309.26 129.04Z" fill="#DCF5FF"/>
<path d="M348.391 260.129C353.123 224.911 364.043 237.582 364.043 217.084C364.043 196.587 363.461 205.86 348.391 234.694C331.995 266.063 343.659 295.346 348.391 260.129Z" fill="#DCF5FF"/>
<path d="M201.65 367.739C235.634 366.211 220.967 364.915 254.419 349.198C287.871 333.481 291.996 327.478 256.433 340.348C222.756 352.534 167.665 369.268 201.65 367.739Z" fill="#DCF5FF"/>
<path d="M129.257 346.217C102.689 331.151 89.3051 320.592 70.5605 293.39C51.8159 266.188 119.417 339.416 142.896 335.502C166.374 331.589 155.825 361.283 129.257 346.217Z" fill="#DCF5FF"/>
<path d="M60.7778 273.824C52.8552 256.624 46.0811 244.627 45.1254 219.041C44.1696 193.455 49.4577 209.199 54.8415 239.631C60.0104 268.849 68.7004 291.024 60.7778 273.824Z" fill="#DCF5FF"/>
<defs>
<filter id="filter0_dd_358_2613" x="0" y="0" width="416.8" height="422.705" filterUnits="userSpaceOnUse" color-interpolation-filters="sRGB">
<feFlood flood-opacity="0" result="BackgroundImageFix"/>
<feColorMatrix in="SourceAlpha" type="matrix" values="0 0 0 0 0 0 0 0 0 0 0 0 0 0 0 0 0 0 127 0" result="hardAlpha"/>
<feMorphology radius="20" operator="dilate" in="SourceAlpha" result="effect1_dropShadow_358_2613"/>
<feOffset/>
<feGaussianBlur stdDeviation="12.5"/>
<feComposite in2="hardAlpha" operator="out"/>
<feColorMatrix type="matrix" values="0 0 0 0 1 0 0 0 0 1 0 0 0 0 1 0 0 0 0.15 0"/>
<feBlend mode="normal" in2="BackgroundImageFix" result="effect1_dropShadow_358_2613"/>
<feColorMatrix in="SourceAlpha" type="matrix" values="0 0 0 0 0 0 0 0 0 0 0 0 0 0 0 0 0 0 127 0" result="hardAlpha"/>
<feMorphology radius="9" operator="dilate" in="SourceAlpha" result="effect2_dropShadow_358_2613"/>
<feOffset dx="12" dy="16"/>
<feGaussianBlur stdDeviation="15.4"/>
<feComposite in2="hardAlpha" operator="out"/>
<feColorMatrix type="matrix" values="0 0 0 0 0 0 0 0 0 0 0 0 0 0 0 0 0 0 0.5 0"/>
<feBlend mode="normal" in2="effect1_dropShadow_358_2613" result="effect2_dropShadow_358_2613"/>
<feBlend mode="normal" in="SourceGraphic" in2="effect2_dropShadow_358_2613" result="shape"/>
</filter>
</defs>
</svg>
