<svg width="303" height="110" viewBox="0 0 303 110" fill="none" xmlns="http://www.w3.org/2000/svg">
<g filter="url(#filter0_d_402_4072)">
<path d="M302.501 42.917C302.501 56.8084 292.052 68.3283 278.369 70.4736C273.333 78.6801 264.193 84.166 253.751 84.166C246.113 84.166 239.171 81.2294 234.022 76.4404C229.131 80.2359 222.959 82.5 216.251 82.5C212.188 82.5 208.323 81.6665 204.818 80.168C199.545 86.1835 191.691 90.0009 182.918 90.001C174.994 90.001 167.82 86.8866 162.619 81.8516C158.317 84.3794 153.29 85.8329 147.918 85.833C141.241 85.833 135.096 83.5887 130.216 79.8252C125.06 84.5813 118.09 87.5 110.417 87.5C101.213 87.5 93.0199 83.2993 87.7578 76.7656C82.9371 80.3639 76.9306 82.5 70.417 82.5C63.678 82.5 57.4818 80.2135 52.5801 76.3867C47.7492 80.214 41.6418 82.5 35 82.5C19.8625 82.4999 7.49963 70.629 6.70898 55.6885C2.52279 50.7668 -1.94185e-06 44.4244 -1.63918e-06 37.5C-9.55177e-07 21.8519 12.8718 9.16703 28.75 9.16698C32.9929 9.16698 37.0212 10.0722 40.6465 11.6982C45.8312 6.04947 53.3284 2.49999 61.667 2.49999C71.2993 2.50009 79.8075 7.23707 84.9268 14.4746C89.8522 10.6328 96.1077 8.33302 102.917 8.333C109.504 8.333 115.572 10.4849 120.42 14.1025C125.641 7.07501 134.145 2.49999 143.751 2.49999C150.776 2.50003 157.212 4.94783 162.206 9.01171C167.033 5.44956 173.054 3.33398 179.585 3.33398C184.99 3.33405 190.046 4.78293 194.365 7.30175C199.477 2.76672 206.281 7.90009e-05 213.751 -3.87939e-06C222.691 -3.87939e-06 230.678 3.96156 235.951 10.1758C240.382 7.42554 245.628 5.83301 251.251 5.83301C259.644 5.83305 267.196 9.37772 272.452 15.0303C272.883 15.0117 273.316 15.001 273.751 15.001C289.629 15.001 302.501 27.4991 302.501 42.917Z" fill="white"/>
</g>
<defs>
<filter id="filter0_d_402_4072" x="0" y="0" width="302.501" height="110.001" filterUnits="userSpaceOnUse" color-interpolation-filters="sRGB">
<feFlood flood-opacity="0" result="BackgroundImageFix"/>
<feColorMatrix in="SourceAlpha" type="matrix" values="0 0 0 0 0 0 0 0 0 0 0 0 0 0 0 0 0 0 127 0" result="hardAlpha"/>
<feOffset dy="20"/>
<feComposite in2="hardAlpha" operator="out"/>
<feColorMatrix type="matrix" values="0 0 0 0 0.152941 0 0 0 0 0.27451 0 0 0 0 0.109804 0 0 0 1 0"/>
<feBlend mode="normal" in2="BackgroundImageFix" result="effect1_dropShadow_402_4072"/>
<feBlend mode="normal" in="SourceGraphic" in2="effect1_dropShadow_402_4072" result="shape"/>
</filter>
</defs>
</svg>
