<svg width="160" height="160" viewBox="0 0 160 160" fill="none" xmlns="http://www.w3.org/2000/svg">
<path fill-rule="evenodd" clip-rule="evenodd" d="M92.6247 49.8867C89.2812 48.2313 85.6006 47.3701 81.8697 47.3701C78.1388 47.3701 74.4583 48.2313 71.1147 49.8867L68.3747 51.2427C65.146 52.8409 62.4283 55.3097 60.5281 58.3704C58.628 61.4312 57.6211 64.9621 57.6211 68.5647C57.6211 72.1673 58.628 75.6982 60.5281 78.7589C62.4283 81.8197 65.146 84.2885 68.3747 85.8867L71.1147 87.2427C75.4847 89.4047 79.3067 93.3227 79.3067 98.1967V100.819C79.3067 105.013 76.8667 108.749 74.6467 112.305C73.3677 114.352 72.5816 116.668 72.3504 119.071C72.1192 121.474 72.4492 123.897 73.3143 126.151C74.1795 128.405 75.5562 130.426 77.336 132.057C79.1158 133.688 81.2499 134.883 83.5704 135.548C85.8908 136.214 88.334 136.331 90.7075 135.891C93.0809 135.451 95.3198 134.466 97.2477 133.013C99.1755 131.561 100.74 129.68 101.817 127.52C102.894 125.359 103.455 122.979 103.455 120.565C103.455 113.081 99.3067 105.819 99.3067 98.3347V97.7407C99.3067 88.5767 104.897 79.9607 105.983 70.8607C106.073 70.1047 106.119 69.3394 106.119 68.5647C106.12 64.9618 105.113 61.4305 103.213 58.3696C101.312 55.3087 98.5941 52.8401 95.3647 51.2427L92.6247 49.8867Z" fill="#FF742B"/>
<path d="M70.2271 48.0941C73.8465 46.3023 77.8306 45.3701 81.8691 45.3701C85.9077 45.3701 89.8918 46.3023 93.5111 48.0941L91.7371 51.6801C88.6689 50.1627 85.2921 49.3733 81.8691 49.3733C78.4462 49.3733 75.0694 50.1627 72.0011 51.6801L70.2271 48.0941ZM67.4871 49.4501L70.2271 48.0941L72.0011 51.6801L69.2591 53.0341L67.4871 49.4501ZM55.6191 68.5641C55.6191 60.4541 60.2191 53.0461 67.4871 49.4501L69.2631 53.0341C66.3673 54.4658 63.9296 56.6788 62.2254 59.4232C60.5212 62.1675 59.6184 65.3337 59.6191 68.5641H55.6191ZM67.4871 87.6801C63.9232 85.9174 60.9232 83.1932 58.826 79.8152C56.7289 76.4373 55.6181 72.5402 55.6191 68.5641H59.6191C59.6184 71.7946 60.5212 74.9608 62.2254 77.7051C63.9296 80.4494 66.3673 82.6625 69.2631 84.0941L67.4871 87.6801ZM70.2271 89.0341L67.4871 87.6801L69.2631 84.0941L72.0011 85.4501L70.2271 89.0341ZM81.3051 98.1961V100.818H77.3051V98.2001L81.3051 98.1961ZM70.2771 120.564C70.2777 117.269 71.2035 114.039 72.9491 111.244L76.3411 113.364C74.9928 115.524 74.2777 118.018 74.2771 120.564H70.2771ZM79.0711 135.796C76.3978 134.252 74.1778 132.031 72.6339 129.358C71.09 126.684 70.2785 123.651 70.2771 120.564H74.2771C74.2785 122.949 74.9051 125.292 76.0979 127.358C77.2908 129.423 79.0059 131.139 81.0711 132.332L79.0711 135.796ZM96.6591 135.796C93.985 137.339 90.9522 138.151 87.8651 138.151C84.778 138.151 81.7453 137.339 79.0711 135.796L81.0711 132.332C83.1372 133.524 85.4802 134.151 87.8651 134.151C90.2501 134.151 92.5931 133.524 94.6591 132.332L96.6591 135.796ZM105.453 120.564C105.452 123.651 104.639 126.684 103.095 129.357C101.552 132.031 99.3321 134.252 96.6591 135.796L94.6591 132.332C96.724 131.139 98.4387 129.423 99.6312 127.357C100.824 125.292 101.452 122.949 101.453 120.564H105.453ZM97.3051 98.3341V97.7401H101.305V98.3341H97.3051ZM108.117 68.5641C108.117 69.4188 108.067 70.2628 107.967 71.0961L103.995 70.6221C104.075 69.9435 104.116 69.2575 104.117 68.5641H108.117ZM96.2491 49.4501C99.8128 51.2127 102.813 53.9366 104.91 57.3142C107.007 60.6918 108.118 64.5884 108.117 68.5641H104.117C104.118 65.3339 103.216 62.1678 101.512 59.4235C99.8079 56.6792 97.3706 54.4661 94.4751 53.0341L96.2491 49.4501ZM93.5111 48.0941L96.2491 49.4501L94.4751 53.0341L91.7371 51.6801L93.5111 48.0941ZM97.3051 97.7401C97.3051 92.7841 98.8151 88.0521 100.345 83.6221C101.911 79.0901 103.485 74.9061 103.995 70.6221L107.967 71.0961C107.391 75.9121 105.627 80.5881 104.127 84.9281C102.589 89.3741 101.305 93.5321 101.305 97.7401H97.3051ZM101.453 120.564C101.453 117.146 100.505 113.728 99.4531 109.99C98.4311 106.356 97.3051 102.4 97.3051 98.3341H101.305C101.305 101.752 102.253 105.17 103.305 108.908C104.325 112.542 105.453 116.498 105.453 120.564H101.453ZM81.3051 100.818C81.3051 105.7 78.4691 109.958 76.3411 113.364L72.9491 111.244C75.2651 107.536 77.3051 104.322 77.3051 100.818H81.3051ZM72.0011 85.4501C76.6691 87.7601 81.3051 92.2101 81.3051 98.1961H77.3031C77.3031 94.4301 74.2951 91.0481 70.2231 89.0361L72.0011 85.4501Z" fill="#FF742B"/>
<path d="M56.8158 30.1725C55.1806 29.8176 53.4746 30.0002 51.9516 30.6931C50.4286 31.386 49.1701 32.5521 48.3632 34.0179C47.5564 35.4837 47.2444 37.1709 47.4737 38.8283C47.703 40.4857 48.4613 42.0248 49.6358 43.2165L51.8358 45.4485C52.9165 46.5446 54.3303 47.2512 55.8557 47.4575C57.3811 47.6638 58.9319 47.3582 60.2649 46.5885C61.598 45.8188 62.638 44.6286 63.2219 43.2044C63.8059 41.7801 63.9008 40.2024 63.4918 38.7185L62.6578 35.6985C62.2818 34.3319 61.5388 33.0943 60.5092 32.1201C59.4797 31.146 58.201 30.4724 56.8158 30.1725ZM76.0258 26.5525C74.9091 25.932 73.621 25.6911 72.3556 25.8661C71.0901 26.0411 69.9158 26.6226 69.0094 27.5228C68.1031 28.4231 67.5138 29.5935 67.3302 30.8577C67.1467 32.122 67.3788 33.4116 67.9918 34.5325L69.4898 37.2685C70.0426 38.2762 70.9176 39.0693 71.9747 39.5208C73.0318 39.9722 74.2098 40.0558 75.3201 39.7583C76.4303 39.4607 77.4086 38.7992 78.0983 37.8796C78.7879 36.96 79.149 35.8356 79.1238 34.6865L79.0538 31.5665C79.0293 30.5394 78.737 29.5366 78.2059 28.6572C77.6748 27.7777 76.9233 27.0523 76.0258 26.5525ZM91.3038 30.5205C90.7562 29.8327 89.9975 29.3443 89.1447 29.1308C88.2919 28.9173 87.3926 28.9906 86.5855 29.3392C85.7785 29.6879 85.1088 30.2925 84.6797 31.0598C84.2507 31.8271 84.0862 32.7144 84.2118 33.5845L84.6538 36.6405C84.7632 37.3938 85.1272 38.0869 85.6851 38.6047C86.2431 39.1226 86.9614 39.4339 87.7208 39.4869C88.4802 39.5399 89.2348 39.3315 89.8593 38.8963C90.4839 38.4611 90.9406 37.8252 91.1538 37.0945L92.0158 34.1305C92.195 33.5154 92.2239 32.8662 92.1 32.2377C91.9761 31.6091 91.703 31.0195 91.3038 30.5185M104.572 36.9865C104.316 36.1902 103.811 35.4977 103.13 35.0118C102.449 34.526 101.63 34.2727 100.794 34.2898C99.9581 34.3069 99.1499 34.5933 98.4897 35.1066C97.8294 35.6198 97.3525 36.3324 97.1298 37.1385L96.7118 38.6485C96.506 39.3907 96.5525 40.1803 96.8442 40.8932C97.1358 41.6061 97.6559 42.202 98.3229 42.5872C98.9899 42.9725 99.766 43.1252 100.529 43.0216C101.292 42.9179 102 42.5636 102.54 42.0145L103.64 40.8965C104.137 40.392 104.487 39.7608 104.652 39.0716C104.816 38.3823 104.788 37.6612 104.572 36.9865ZM114.456 46.2845C114.349 45.4985 113.995 44.7668 113.446 44.1949C112.896 43.623 112.179 43.2406 111.398 43.1029C110.617 42.9651 109.812 43.0791 109.1 43.4285C108.388 43.7778 107.805 44.3444 107.436 45.0465L107.296 45.3105C106.934 45.9998 106.801 46.7869 106.919 47.5568C107.036 48.3266 107.396 49.0388 107.947 49.5893C108.497 50.1398 109.21 50.4997 109.98 50.6165C110.75 50.7333 111.537 50.6009 112.226 50.2385L112.49 50.1005C113.17 49.7432 113.723 49.1853 114.075 48.5026C114.426 47.8199 114.56 47.0454 114.456 46.2845Z" fill="#FF742B"/>
<path d="M91.3038 30.5205C90.7562 29.8327 89.9975 29.3443 89.1447 29.1308C88.2919 28.9173 87.3926 28.9906 86.5855 29.3392C85.7785 29.6879 85.1088 30.2925 84.6797 31.0598C84.2507 31.8271 84.0862 32.7144 84.2118 33.5845L84.6538 36.6405C84.7632 37.3938 85.1272 38.0869 85.6851 38.6047C86.2431 39.1226 86.9614 39.4339 87.7208 39.4869C88.4802 39.5399 89.2348 39.3315 89.8593 38.8963C90.4839 38.4611 90.9406 37.8252 91.1538 37.0945L92.0158 34.1305C92.195 33.5154 92.2239 32.8662 92.1 32.2377C91.9761 31.6091 91.703 31.0195 91.3038 30.5185M56.8158 30.1725C55.1806 29.8176 53.4746 30.0002 51.9516 30.6931C50.4286 31.386 49.1701 32.5521 48.3632 34.0179C47.5564 35.4837 47.2444 37.1709 47.4737 38.8283C47.703 40.4857 48.4613 42.0248 49.6358 43.2165L51.8358 45.4485C52.9165 46.5446 54.3303 47.2512 55.8557 47.4575C57.3811 47.6638 58.9319 47.3582 60.2649 46.5885C61.598 45.8188 62.638 44.6286 63.2219 43.2044C63.8059 41.7801 63.9008 40.2024 63.4918 38.7185L62.6578 35.6985C62.2818 34.3319 61.5388 33.0943 60.5092 32.1201C59.4797 31.146 58.201 30.4724 56.8158 30.1725ZM76.0258 26.5525C74.9091 25.932 73.621 25.6911 72.3556 25.8661C71.0901 26.0411 69.9158 26.6226 69.0094 27.5228C68.1031 28.4231 67.5137 29.5935 67.3302 30.8577C67.1467 32.122 67.3788 33.4116 67.9918 34.5325L69.4898 37.2685C70.0426 38.2762 70.9176 39.0693 71.9747 39.5208C73.0318 39.9722 74.2098 40.0558 75.3201 39.7583C76.4303 39.4607 77.4086 38.7992 78.0983 37.8796C78.7879 36.96 79.149 35.8356 79.1238 34.6865L79.0538 31.5665C79.0293 30.5394 78.737 29.5366 78.2059 28.6572C77.6748 27.7777 76.9233 27.0523 76.0258 26.5525ZM104.572 36.9865C104.316 36.1902 103.811 35.4977 103.13 35.0118C102.449 34.526 101.63 34.2727 100.794 34.2898C99.9581 34.3069 99.1499 34.5933 98.4897 35.1066C97.8294 35.6198 97.3525 36.3324 97.1298 37.1385L96.7118 38.6485C96.506 39.3907 96.5525 40.1803 96.8442 40.8932C97.1358 41.6061 97.6559 42.202 98.3229 42.5872C98.9899 42.9725 99.766 43.1252 100.529 43.0216C101.292 42.9179 102 42.5636 102.54 42.0145L103.64 40.8965C104.137 40.392 104.487 39.7608 104.652 39.0716C104.816 38.3823 104.788 37.6612 104.572 36.9865ZM114.456 46.2845C114.349 45.4985 113.995 44.7668 113.446 44.1949C112.896 43.623 112.179 43.2406 111.398 43.1029C110.617 42.9651 109.812 43.0791 109.1 43.4285C108.388 43.7778 107.805 44.3444 107.436 45.0465L107.296 45.3105C106.934 45.9998 106.801 46.7869 106.919 47.5568C107.036 48.3266 107.396 49.0388 107.947 49.5893C108.497 50.1398 109.21 50.4997 109.98 50.6165C110.75 50.7333 111.537 50.6009 112.226 50.2385L112.49 50.1005C113.17 49.7432 113.723 49.1853 114.075 48.5026C114.426 47.8199 114.56 47.0454 114.456 46.2845Z" stroke="#FF742B" stroke-width="0.5" stroke-linecap="round" stroke-linejoin="round"/>
</svg>
