<svg width="233" height="233" viewBox="0 0 233 233" fill="none" xmlns="http://www.w3.org/2000/svg">
<circle cx="116.322" cy="116.322" r="116.322" fill="#8C4E2C"/>
<path d="M116.408 0C180.65 0.000259767 232.729 52.0797 232.729 116.322C232.729 142.459 224.107 166.582 209.554 186.004C193.744 195.488 175.57 201.581 155.952 203.192C87.6568 208.801 27.7451 157.984 22.136 89.6885C20.7379 72.6649 22.8453 56.1622 27.8557 40.8916C49.1914 15.8687 80.9462 0 116.408 0Z" fill="#FF8E52"/>
<mask id="mask0_171_2369" style="mask-type:alpha" maskUnits="userSpaceOnUse" x="0" y="0" width="233" height="233">
<circle cx="116.322" cy="116.322" r="116.322" fill="#FF8E52"/>
</mask>
<g mask="url(#mask0_171_2369)">
<path d="M84.3582 -8.64088C105.382 5.09001 120.143 23.8522 127.093 42.9685C134.044 62.0839 133.142 81.3583 123.236 96.5267C113.329 111.695 96.0429 120.268 75.746 121.588C55.4481 122.908 32.3351 116.935 11.3112 103.204C-9.71284 89.4733 -24.474 70.7108 -31.4248 51.5943C-38.375 32.479 -37.4728 13.205 -27.5663 -1.9633C-17.6597 -17.1316 -0.374206 -25.7056 19.9226 -27.0256C40.2206 -28.3457 63.3342 -22.3719 84.3582 -8.64088Z" stroke="black" stroke-width="6"/>
<circle cx="24.1424" cy="42.7545" r="136.586" transform="rotate(33.1489 24.1424 42.7545)" stroke="black" stroke-width="6"/>
<circle cx="66.0174" cy="197.849" r="136.586" transform="rotate(33.1489 66.0174 197.849)" stroke="black" stroke-width="6"/>
<path d="M279.441 133.124C296.735 151.33 306.775 172.989 309.134 193.192C311.493 213.395 306.174 231.943 293.039 244.42C279.904 256.898 261.107 261.257 241.052 257.865C220.996 254.472 199.882 243.334 182.588 225.128C165.293 206.922 155.253 185.263 152.894 165.059C150.535 144.857 155.855 126.309 168.99 113.832C182.125 101.354 200.921 96.9942 220.976 100.387C241.032 103.779 262.147 114.918 279.441 133.124Z" stroke="black" stroke-width="6"/>
</g>
</svg>
